<?xml version="1.0" standalone="no"?><!DOCTYPE svg PUBLIC "-//W3C//DTD SVG 1.1//EN" "http://www.w3.org/Graphics/SVG/1.1/DTD/svg11.dtd"><svg height="1024" node-id="1" sillyvg="true" template-height="1024" template-width="1024" version="1.1" viewBox="0 0 1024 1024" width="1024" xmlns="http://www.w3.org/2000/svg" xmlns:xlink="http://www.w3.org/1999/xlink"><defs node-id="95"><linearGradient gradientUnits="objectBoundingBox" id="paint0_linear_1519_111741" node-id="32" spreadMethod="pad" x1="506" x2="506" y1="635" y2="890"><stop offset="0" stop-color="#bddfff"></stop><stop offset="0.95892" stop-color="#ffffff" stop-opacity="0"></stop></linearGradient><linearGradient gradientUnits="objectBoundingBox" id="paint1_linear_1519_111741" node-id="35" spreadMethod="pad" x1="229.66" x2="229.66" y1="754.678" y2="615.257"><stop offset="0" stop-color="#5fb2ff"></stop><stop offset="0.7893" stop-color="#dff0ff"></stop></linearGradient><linearGradient gradientUnits="objectBoundingBox" id="paint2_linear_1519_111741" node-id="38" spreadMethod="pad" x1="229.661" x2="229.661" y1="630.738" y2="784.347"><stop offset="0" stop-color="#dff0ff"></stop><stop offset="0.818" stop-color="#a2d2ff"></stop></linearGradient><linearGradient gradientUnits="objectBoundingBox" id="paint3_linear_1519_111741" node-id="41" spreadMethod="pad" x1="883.842" x2="847.534" y1="720.042" y2="802.968"><stop offset="0.365159" stop-color="#c4e3ff"></stop><stop offset="1" stop-color="#5fb2ff"></stop></linearGradient><linearGradient gradientUnits="objectBoundingBox" id="paint4_linear_1519_111741" node-id="44" spreadMethod="pad" x1="647.958" x2="593.828" y1="636" y2="792.448"><stop offset="0" stop-color="#c9e7ff"></stop><stop offset="1" stop-color="#b0d9ff"></stop></linearGradient><linearGradient gradientUnits="objectBoundingBox" id="paint5_linear_1519_111741" node-id="47" spreadMethod="pad" x1="615.783" x2="608.662" y1="614.27" y2="680.259"><stop offset="0" stop-color="#6cb8ff"></stop><stop offset="0.656831" stop-color="#8fc8ff"></stop></linearGradient><linearGradient gradientUnits="objectBoundingBox" id="paint6_linear_1519_111741" node-id="50" spreadMethod="pad" x1="615.783" x2="608.662" y1="614.27" y2="680.259"><stop offset="0" stop-color="#6cb8ff"></stop><stop offset="0.656831" stop-color="#8fc8ff"></stop></linearGradient><linearGradient gradientUnits="objectBoundingBox" id="paint7_linear_1519_111741" node-id="53" spreadMethod="pad" x1="547.404" x2="505.705" y1="279.247" y2="435.33"><stop offset="0" stop-color="#8dafce"></stop><stop offset="0.656831" stop-color="#abd6ff"></stop></linearGradient><linearGradient gradientUnits="objectBoundingBox" id="paint8_linear_1519_111741" node-id="56" spreadMethod="pad" x1="575.361" x2="352.018" y1="322.681" y2="526.331"><stop offset="0.193281" stop-color="#86c4ff"></stop><stop offset="0.776625" stop-color="#b1d9ff"></stop></linearGradient><linearGradient gradientUnits="objectBoundingBox" id="paint9_linear_1519_111741" node-id="59" spreadMethod="pad" x1="520.375" x2="502.819" y1="415.603" y2="447.074"><stop offset="0" stop-color="#6cb8ff"></stop><stop offset="0.656831" stop-color="#8fc8ff"></stop></linearGradient><linearGradient gradientUnits="objectBoundingBox" id="paint10_linear_1519_111741" node-id="62" spreadMethod="pad" x1="289.69" x2="247.953" y1="283.352" y2="347.522"><stop offset="0" stop-color="#6cb8ff"></stop><stop offset="0.656831" stop-color="#8fc8ff"></stop></linearGradient><linearGradient gradientUnits="objectBoundingBox" id="paint11_linear_1519_111741" node-id="65" spreadMethod="pad" x1="626.849" x2="629.467" y1="564.569" y2="581.168"><stop offset="0" stop-color="#ffcda5"></stop><stop offset="1" stop-color="#ffe8d1"></stop></linearGradient><linearGradient gradientUnits="objectBoundingBox" id="paint12_linear_1519_111741" node-id="68" spreadMethod="pad" x1="618.59" x2="651.068" y1="525.732" y2="559.693"><stop offset="0" stop-color="#fff2df"></stop><stop offset="1" stop-color="#fee0bc"></stop></linearGradient><linearGradient gradientUnits="objectBoundingBox" id="paint13_linear_1519_111741" node-id="71" spreadMethod="pad" x1="631.431" x2="603.531" y1="524.128" y2="560.927"><stop offset="0" stop-color="#9f4326"></stop><stop offset="1" stop-color="#574915"></stop></linearGradient><linearGradient gradientUnits="objectBoundingBox" id="paint14_linear_1519_111741" node-id="74" spreadMethod="pad" x1="699.096" x2="696.563" y1="630.518" y2="642.884"><stop offset="0" stop-color="#fee4c3"></stop><stop offset="1" stop-color="#ffd1ac"></stop></linearGradient><linearGradient gradientUnits="objectBoundingBox" id="paint15_linear_1519_111741" node-id="77" spreadMethod="pad" x1="582.409" x2="593.945" y1="663.58" y2="668.703"><stop offset="0" stop-color="#fee4c3"></stop><stop offset="1" stop-color="#ffd1ac"></stop></linearGradient><linearGradient gradientUnits="objectBoundingBox" id="paint16_linear_1519_111741" node-id="80" spreadMethod="pad" x1="632.555" x2="646.297" y1="660.61" y2="570.212"><stop offset="0.0403741" stop-color="#6688ff"></stop><stop offset="1" stop-color="#f094ff"></stop></linearGradient><linearGradient gradientUnits="objectBoundingBox" id="paint17_linear_1519_111741" node-id="83" spreadMethod="pad" x1="632.555" x2="646.297" y1="660.61" y2="570.212"><stop offset="0.0403741" stop-color="#6688ff"></stop><stop offset="1" stop-color="#f094ff"></stop></linearGradient><linearGradient gradientUnits="objectBoundingBox" id="paint18_linear_1519_111741" node-id="86" spreadMethod="pad" x1="632.555" x2="646.297" y1="660.61" y2="570.212"><stop offset="0.0403741" stop-color="#6688ff"></stop><stop offset="1" stop-color="#f094ff"></stop></linearGradient><linearGradient gradientUnits="objectBoundingBox" id="paint19_linear_1519_111741" node-id="89" spreadMethod="pad" x1="730.514" x2="684.21" y1="303.81" y2="297.282"><stop offset="0" stop-color="#6cb8ff"></stop><stop offset="0.656831" stop-color="#8fc8ff"></stop></linearGradient><clipPath id="clip0_1519_111741" node-id="92"><path d="M 0.00 0.00 L 1024.00 0.00 L 1024.00 1024.00 L 0.00 1024.00 Z" fill="#000000" fill-rule="nonzero" node-id="218" stroke="none" target-height="1024" target-width="1024" target-x="0" target-y="0"></path></clipPath></defs><g clip-path="url(#clip0_1519_111741)" id="sillyvg_g_0" node-id="222"><path d="M 973.00 762.50 L 972.80 766.60 L 972.00 770.70 L 970.80 774.80 L 969.10 779.00 L 966.80 783.20 L 963.90 787.50 L 960.30 792.10 L 955.90 796.70 L 950.60 801.50 L 944.50 806.30 L 937.50 811.30 L 928.70 816.70 L 918.80 822.10 L 907.40 827.70 L 894.50 833.20 L 881.90 838.10 L 868.10 843.00 L 852.90 847.90 L 836.20 852.70 L 802.60 861.00 L 765.10 868.60 L 726.40 874.90 L 684.70 880.30 L 656.60 883.20 L 627.50 885.60 L 597.50 887.50 L 567.50 888.90 L 537.00 889.70 L 506.00 890.00 L 475.00 889.70 L 444.50 888.90 L 414.50 887.50 L 384.50 885.60 L 355.40 883.20 L 327.30 880.30 L 285.60 874.90 L 246.90 868.60 L 209.40 861.00 L 175.80 852.70 L 159.10 847.90 L 143.90 843.00 L 130.10 838.10 L 117.50 833.20 L 104.60 827.70 L 93.20 822.10 L 83.30 816.70 L 74.50 811.30 L 67.50 806.30 L 61.40 801.50 L 56.10 796.70 L 51.70 792.10 L 48.10 787.50 L 45.20 783.20 L 42.90 779.00 L 41.20 774.80 L 40.00 770.70 L 39.20 766.60 L 39.00 762.50 L 39.20 758.40 L 40.00 754.30 L 41.20 750.20 L 42.90 746.00 L 45.20 741.80 L 48.10 737.50 L 51.70 732.90 L 56.10 728.30 L 61.40 723.50 L 67.50 718.70 L 74.50 713.70 L 83.30 708.30 L 93.20 702.90 L 104.60 697.30 L 117.50 691.80 L 130.10 686.90 L 143.90 682.00 L 159.10 677.10 L 175.80 672.30 L 209.40 664.00 L 246.90 656.40 L 285.60 650.10 L 327.30 644.70 L 355.40 641.80 L 384.50 639.40 L 414.50 637.50 L 444.50 636.10 L 475.00 635.30 L 506.00 635.00 L 537.00 635.30 L 567.50 636.10 L 597.50 637.50 L 627.50 639.40 L 656.60 641.80 L 684.70 644.70 L 726.40 650.10 L 765.10 656.40 L 802.60 664.00 L 836.20 672.30 L 852.90 677.10 L 868.10 682.00 L 881.90 686.90 L 894.50 691.80 L 907.40 697.30 L 918.80 702.90 L 928.70 708.30 L 937.50 713.70 L 944.50 718.70 L 950.60 723.50 L 955.90 728.30 L 960.30 732.90 L 963.90 737.50 L 966.80 741.80 L 969.10 746.00 L 970.80 750.20 L 972.00 754.30 L 972.80 758.40 L 973.00 762.50 Z" fill="url(#paint0_linear_1519_111741)" fill-rule="nonzero" node-id="224" stroke="none" target-height="255" target-width="934" target-x="39" target-y="635"></path><path d="M 230.50 615.50 L 230.20 615.30 L 229.90 615.50 L 226.90 622.60 L 218.30 645.90 L 211.50 667.50 L 208.30 679.50 L 205.40 691.70 L 203.00 704.10 L 201.80 712.40 L 200.20 730.20 L 200.60 735.20 L 201.30 738.20 L 202.60 741.60 L 203.90 743.70 L 207.60 748.00 L 209.90 749.80 L 212.90 751.40 L 216.60 752.80 L 220.50 753.80 L 225.20 754.40 L 231.00 754.70 L 235.40 754.40 L 242.30 753.00 L 245.00 751.90 L 248.50 749.90 L 251.30 747.70 L 253.40 745.20 L 255.20 742.40 L 257.60 736.60 L 258.60 732.10 L 259.00 728.00 L 258.90 716.50 L 257.40 704.80 L 255.60 695.60 L 253.20 685.60 L 247.70 665.50 L 241.60 646.50 L 230.50 615.50 Z" fill="url(#paint1_linear_1519_111741)" fill-rule="nonzero" node-id="226" stroke="none" target-height="139.40002" target-width="58.800003" target-x="200.2" target-y="615.3"></path><path d="M 229.70 784.30 L 228.90 784.00 L 228.60 783.30 L 228.60 631.80 L 228.90 631.00 L 229.70 630.70 L 230.40 631.00 L 230.70 631.80 L 230.70 783.30 L 230.40 784.00 L 229.70 784.30 Z" fill="url(#paint2_linear_1519_111741)" fill-rule="nonzero" node-id="228" stroke="none" target-height="153.59998" target-width="2.0999908" target-x="228.6" target-y="630.7"></path><path d="M 869.40 810.70 L 876.50 808.00 L 879.90 806.20 L 883.30 803.80 L 886.60 801.00 L 890.80 795.80 L 891.90 792.80 L 891.70 791.30 L 890.20 789.40 L 888.00 788.50 L 886.20 788.50 L 883.50 789.00 L 879.20 790.50 L 870.90 794.80 L 870.30 794.80 L 869.30 794.30 L 868.80 793.30 L 868.80 792.70 L 870.30 790.40 L 872.70 788.30 L 882.60 781.40 L 890.70 774.50 L 894.20 770.10 L 895.40 767.60 L 896.00 765.10 L 895.60 762.50 L 893.80 760.60 L 892.50 760.00 L 890.40 759.60 L 888.20 759.80 L 883.70 761.50 L 881.60 762.90 L 878.80 765.30 L 873.10 770.90 L 869.80 773.30 L 868.00 774.00 L 866.00 774.40 L 864.00 774.00 L 863.30 773.30 L 862.80 771.30 L 863.30 769.30 L 873.00 757.80 L 876.50 752.90 L 879.40 747.70 L 881.00 744.00 L 882.20 740.20 L 883.00 736.20 L 883.20 732.20 L 882.90 728.30 L 882.00 724.40 L 880.70 721.20 L 878.60 718.40 L 877.20 717.30 L 874.00 716.10 L 872.30 716.10 L 869.40 717.10 L 866.50 719.90 L 863.60 725.20 L 862.30 728.50 L 860.40 737.40 L 858.20 756.20 L 856.90 760.60 L 855.10 763.20 L 853.70 763.30 L 852.30 761.90 L 848.10 748.80 L 846.80 746.00 L 843.90 742.10 L 840.90 740.30 L 839.20 740.10 L 837.80 740.30 L 835.40 741.60 L 834.00 743.30 L 833.00 745.30 L 832.60 747.40 L 832.70 749.60 L 833.60 753.90 L 835.10 757.60 L 837.00 761.10 L 839.20 764.50 L 844.50 770.90 L 845.60 772.70 L 846.30 774.70 L 846.30 776.10 L 845.40 778.80 L 844.50 779.90 L 843.40 780.60 L 842.10 780.70 L 840.70 780.30 L 830.70 774.80 L 826.80 773.70 L 824.90 773.80 L 823.00 774.40 L 820.70 776.20 L 819.40 779.00 L 819.00 780.80 L 819.00 782.70 L 820.00 786.10 L 824.10 793.50 L 827.40 798.30 L 830.10 801.60 L 833.10 804.50 L 838.20 808.40 L 841.60 810.20 L 845.80 811.70 L 852.20 812.90 L 860.00 812.70 L 864.40 812.00 L 869.40 810.70 Z" fill="url(#paint3_linear_1519_111741)" fill-rule="nonzero" node-id="230" stroke="none" target-height="96.80005" target-width="77" target-x="819" target-y="716.1"></path><path d="M 746.00 643.00 L 280.00 643.00 L 280.00 690.00 L 280.40 690.00 L 281.60 691.80 L 283.70 693.70 L 286.90 695.80 L 291.70 698.00 L 298.00 700.30 L 306.20 702.70 L 316.60 705.20 L 327.00 707.30 L 353.10 711.30 L 374.60 713.70 L 399.40 715.90 L 425.10 717.60 L 453.30 718.90 L 482.30 719.70 L 513.00 720.00 L 543.70 719.70 L 572.70 718.90 L 600.90 717.60 L 626.60 715.90 L 651.40 713.70 L 672.90 711.30 L 699.00 707.30 L 709.40 705.20 L 719.80 702.70 L 728.00 700.30 L 734.30 698.00 L 739.10 695.80 L 742.30 693.70 L 744.40 691.80 L 745.60 690.00 L 746.00 690.00 L 746.00 643.00 Z" fill="url(#paint4_linear_1519_111741)" fill-rule="evenodd" node-id="232" stroke="none" target-height="77" target-width="466" target-x="280" target-y="643"></path><path d="M 746.00 643.00 L 745.70 644.50 L 744.90 646.10 L 743.50 647.70 L 741.10 649.50 L 737.70 651.50 L 728.50 655.20 L 714.20 659.20 L 704.00 661.30 L 677.80 665.60 L 647.90 669.10 L 630.60 670.60 L 604.20 672.50 L 574.90 673.90 L 545.00 674.70 L 513.00 675.00 L 481.00 674.70 L 451.10 673.90 L 421.80 672.50 L 395.40 670.60 L 378.10 669.10 L 348.20 665.60 L 322.00 661.30 L 311.80 659.20 L 297.50 655.20 L 288.30 651.50 L 284.90 649.50 L 282.50 647.70 L 281.10 646.10 L 280.30 644.50 L 280.00 643.00 L 280.30 641.50 L 281.10 639.90 L 282.50 638.30 L 284.90 636.50 L 288.30 634.50 L 297.50 630.80 L 311.80 626.80 L 322.00 624.70 L 348.20 620.40 L 378.10 616.90 L 395.40 615.40 L 421.80 613.50 L 451.10 612.10 L 481.00 611.30 L 513.00 611.00 L 545.00 611.30 L 574.90 612.10 L 604.20 613.50 L 630.60 615.40 L 647.90 616.90 L 677.80 620.40 L 704.00 624.70 L 714.20 626.80 L 728.50 630.80 L 737.70 634.50 L 741.10 636.50 L 743.50 638.30 L 744.90 639.90 L 745.70 641.50 L 746.00 643.00 Z" fill="url(#paint5_linear_1519_111741)" fill-rule="nonzero" node-id="234" stroke="none" target-height="64" target-width="466" target-x="280" target-y="611"></path><path d="M 746.00 643.00 L 745.70 644.50 L 744.90 646.10 L 743.50 647.70 L 741.10 649.50 L 737.70 651.50 L 728.50 655.20 L 714.20 659.20 L 704.00 661.30 L 677.80 665.60 L 647.90 669.10 L 630.60 670.60 L 604.20 672.50 L 574.90 673.90 L 545.00 674.70 L 513.00 675.00 L 481.00 674.70 L 451.10 673.90 L 421.80 672.50 L 395.40 670.60 L 378.10 669.10 L 348.20 665.60 L 322.00 661.30 L 311.80 659.20 L 297.50 655.20 L 288.30 651.50 L 284.90 649.50 L 282.50 647.70 L 281.10 646.10 L 280.30 644.50 L 280.00 643.00 L 280.30 641.50 L 281.10 639.90 L 282.50 638.30 L 284.90 636.50 L 288.30 634.50 L 297.50 630.80 L 311.80 626.80 L 322.00 624.70 L 348.20 620.40 L 378.10 616.90 L 395.40 615.40 L 421.80 613.50 L 451.10 612.10 L 481.00 611.30 L 513.00 611.00 L 545.00 611.30 L 574.90 612.10 L 604.20 613.50 L 630.60 615.40 L 647.90 616.90 L 677.80 620.40 L 704.00 624.70 L 714.20 626.80 L 728.50 630.80 L 737.70 634.50 L 741.10 636.50 L 743.50 638.30 L 744.90 639.90 L 745.70 641.50 L 746.00 643.00 Z" fill="url(#paint6_linear_1519_111741)" fill-rule="nonzero" node-id="236" stroke="none" target-height="64" target-width="466" target-x="280" target-y="611"></path><path d="M 715.30 659.90 L 693.10 664.30 L 679.00 666.50 L 649.00 670.00 L 631.60 671.60 L 605.00 673.40 L 575.50 674.80 L 534.70 675.90 L 513.00 676.00 L 481.00 675.70 L 451.00 674.90 L 421.80 673.50 L 395.40 671.60 L 378.00 670.10 L 348.20 666.60 L 334.10 664.50 L 311.80 660.10 L 312.80 658.30 L 314.50 656.30 L 317.30 654.10 L 321.30 651.80 L 326.70 649.40 L 333.80 646.90 L 342.80 644.40 L 351.80 642.20 L 374.50 638.10 L 400.00 634.70 L 437.00 631.40 L 461.60 630.10 L 486.80 629.30 L 513.60 629.00 L 540.20 629.30 L 565.30 630.10 L 589.80 631.40 L 626.70 634.60 L 652.20 638.00 L 674.80 642.10 L 683.90 644.20 L 692.90 646.80 L 700.00 649.20 L 705.50 651.60 L 709.60 653.90 L 712.40 656.00 L 714.30 658.00 L 715.30 659.90 Z" fill="#6cb8ff" fill-rule="evenodd" node-id="238" stroke="none" target-height="47" target-width="403.5" target-x="311.8" target-y="629"></path><path d="M 675.00 291.00 L 669.00 287.50 L 664.20 285.50 L 653.80 282.00 L 647.40 280.40 L 633.80 278.10 L 626.20 277.40 L 618.60 277.10 L 610.70 277.20 L 602.60 277.80 L 594.40 279.00 L 586.30 280.80 L 578.10 283.20 L 572.10 285.50 L 566.20 288.20 L 560.40 291.40 L 554.70 295.10 L 549.30 299.20 L 544.00 303.80 L 538.90 309.10 L 534.00 315.00 L 510.40 345.10 L 502.30 354.90 L 485.70 373.30 L 477.00 382.00 L 468.00 390.00 L 458.90 397.50 L 451.70 402.70 L 444.40 407.50 L 436.90 411.80 L 429.10 415.70 L 421.20 419.00 L 412.90 421.80 L 404.30 424.10 L 395.40 425.80 L 388.30 426.70 L 380.90 427.20 L 373.20 427.20 L 365.20 426.80 L 356.90 425.90 L 348.80 424.70 L 340.40 422.90 L 331.60 420.50 L 322.30 417.60 L 312.50 414.00" fill="none" node-id="240" stroke="url(#paint7_linear_1519_111741)" stroke-dasharray="2 2" stroke-linecap="butt" stroke-width="2" target-height="150.1" target-width="362.5" target-x="312.5" target-y="277.1"></path><path d="M 646.60 347.60 L 512.50 305.00 L 378.40 347.60 L 376.00 348.70 L 374.00 350.10 L 372.30 352.00 L 371.00 354.20 L 370.30 356.50 L 370.00 359.20 L 370.00 528.70 L 372.20 535.90 L 376.70 546.80 L 383.00 558.30 L 390.00 568.60 L 394.00 573.80 L 404.00 584.70 L 409.70 589.90 L 416.70 595.50 L 432.80 606.70 L 450.50 617.70 L 468.30 628.00 L 484.60 636.90 L 510.80 650.40 L 514.10 651.00 L 517.40 650.40 L 533.90 641.90 L 549.40 633.40 L 578.00 616.50 L 597.40 603.60 L 606.20 597.30 L 611.80 592.80 L 621.00 584.70 L 631.00 573.80 L 635.00 568.60 L 642.00 558.30 L 648.30 546.80 L 652.80 535.90 L 655.00 528.70 L 655.00 359.20 L 654.70 356.50 L 654.00 354.20 L 652.70 352.00 L 651.00 350.10 L 649.00 348.70 L 646.60 347.60 Z M 514.20 624.10 L 514.30 624.00 Z M 546.10 525.60 L 524.50 525.60 L 524.50 556.10 L 524.20 558.50 L 523.70 560.60 L 522.70 562.60 L 519.90 565.90 L 518.10 567.20 L 516.10 568.10 L 514.00 568.70 L 511.60 569.00 L 507.20 568.10 L 505.20 567.20 L 501.80 564.40 L 499.60 560.60 L 499.00 558.50 L 498.80 556.10 L 498.90 476.70 L 491.80 474.10 L 488.00 472.10 L 484.40 469.60 L 481.00 466.80 L 477.80 463.60 L 472.60 456.60 L 470.50 452.60 L 468.70 448.40 L 467.40 443.90 L 466.50 439.30 L 466.10 434.80 L 466.20 430.20 L 466.90 425.20 L 468.10 420.30 L 469.70 415.70 L 471.80 411.30 L 474.30 407.10 L 477.40 403.00 L 480.50 399.70 L 483.80 396.70 L 487.50 394.20 L 491.50 392.00 L 495.60 390.20 L 500.00 388.80 L 504.40 387.80 L 508.90 387.30 L 513.40 387.20 L 517.90 387.50 L 522.30 388.30 L 526.60 389.60 L 531.20 391.60 L 535.50 393.90 L 539.50 396.70 L 543.20 399.80 L 546.60 403.30 L 549.70 407.20 L 552.00 410.90 L 554.00 414.90 L 555.50 419.10 L 556.60 423.40 L 557.30 427.80 L 557.60 433.90 L 557.20 438.70 L 556.20 443.50 L 554.80 448.10 L 552.90 452.60 L 550.70 456.80 L 547.90 460.80 L 544.80 464.50 L 541.40 467.80 L 537.60 470.80 L 533.50 473.30 L 529.10 475.40 L 524.40 476.90 L 524.40 499.40 L 548.40 499.70 L 550.60 500.20 L 554.40 502.50 L 557.20 505.80 L 558.10 507.80 L 558.70 509.90 L 559.00 512.80 L 558.70 515.10 L 557.20 519.30 L 554.40 522.60 L 552.60 523.90 L 548.50 525.40 L 546.10 525.60 Z" fill="url(#paint8_linear_1519_111741)" fill-rule="nonzero" node-id="242" stroke="none" target-height="346" target-width="285" target-x="370" target-y="305"></path><path d="M 527.20 444.60 L 529.60 440.50 L 530.40 438.00 L 531.00 435.50 L 531.00 430.40 L 529.60 425.40 L 528.00 422.30 L 527.00 420.90 L 523.50 417.50 L 519.40 415.10 L 517.00 414.30 L 514.50 413.70 L 509.30 413.70 L 504.30 415.10 L 501.30 416.80 L 498.30 419.30 L 496.20 421.70 L 494.10 425.30 L 492.70 430.30 L 492.70 435.40 L 494.10 440.40 L 495.80 443.40 L 496.70 444.90 L 500.20 448.30 L 504.30 450.70 L 506.80 451.40 L 509.20 452.00 L 514.40 452.00 L 519.40 450.70 L 522.40 449.00 L 523.80 448.00 L 527.20 444.60 Z" fill="url(#paint9_linear_1519_111741)" fill-rule="nonzero" node-id="244" stroke="none" target-height="38.299988" target-width="38.299988" target-x="492.7" target-y="413.7"></path><path d="M 283.60 300.70 L 288.00 298.80 L 290.50 298.40 L 292.80 299.30 L 294.30 301.20 L 309.70 336.40 L 310.10 337.60 L 309.80 340.00 L 308.40 342.00 L 307.20 342.60 L 259.10 363.80 L 256.60 364.10 L 254.40 363.30 L 252.80 361.30 L 237.40 326.20 L 237.00 323.80 L 237.90 321.50 L 239.80 319.90 L 244.20 318.00 L 240.40 309.30 L 238.70 303.60 L 238.60 298.10 L 239.40 294.40 L 240.70 291.10 L 242.60 287.90 L 246.40 283.90 L 248.70 282.20 L 251.40 280.80 L 254.20 279.80 L 259.80 279.00 L 262.50 279.10 L 266.20 279.90 L 269.50 281.20 L 272.70 283.10 L 276.70 286.90 L 279.80 292.00 L 283.60 300.70 Z M 250.80 315.10 L 277.00 303.60 L 273.20 294.80 L 271.80 292.40 L 270.00 290.30 L 267.80 288.50 L 265.30 287.20 L 262.50 286.50 L 259.80 286.20 L 257.00 286.60 L 254.30 287.40 L 252.00 288.70 L 250.10 290.30 L 248.50 292.10 L 247.20 294.30 L 246.30 296.50 L 245.80 298.90 L 245.70 301.40 L 246.10 303.90 L 250.80 315.10 Z M 273.70 340.60 L 276.10 340.30 L 278.30 339.40 L 280.10 338.00 L 281.50 336.10 L 282.40 334.00 L 282.70 331.60 L 282.40 329.20 L 281.50 327.10 L 280.10 325.20 L 278.30 323.80 L 276.10 322.90 L 273.70 322.60 L 271.30 322.90 L 269.20 323.80 L 267.40 325.20 L 266.00 327.10 L 265.10 329.20 L 264.70 331.60 L 265.10 334.00 L 266.00 336.10 L 267.40 338.00 L 269.20 339.40 L 271.30 340.30 L 273.70 340.60 Z" fill="url(#paint10_linear_1519_111741)" fill-rule="evenodd" node-id="246" stroke="none" target-height="85.100006" target-width="73.100006" target-x="237" target-y="279"></path><path d="M 635.80 560.60 L 617.10 563.60 L 620.10 582.60 L 638.90 579.70 L 635.80 560.60 Z" fill="url(#paint11_linear_1519_111741)" fill-rule="nonzero" node-id="248" stroke="none" target-height="22" target-width="21.800049" target-x="617.1" target-y="560.6"></path><path d="M 633.20 567.20 L 635.60 566.30 L 639.80 563.60 L 641.60 561.70 L 643.60 559.00 L 645.00 555.80 L 646.10 552.30 L 646.50 548.70 L 646.40 544.90 L 645.60 541.00 L 644.20 537.20 L 642.40 533.90 L 640.10 531.00 L 637.40 528.50 L 634.60 526.60 L 631.40 525.30 L 629.00 524.60 L 624.00 524.50 L 621.40 524.90 L 618.90 525.90 L 614.70 528.60 L 613.00 530.40 L 611.00 533.20 L 609.50 536.30 L 608.50 539.80 L 608.10 543.40 L 608.20 547.20 L 609.00 551.20 L 610.40 555.00 L 612.20 558.30 L 614.40 561.10 L 617.10 563.60 L 620.00 565.50 L 623.10 566.90 L 625.60 567.50 L 630.60 567.70 L 633.20 567.20 Z" fill="url(#paint12_linear_1519_111741)" fill-rule="nonzero" node-id="250" stroke="none" target-height="43.200012" target-width="38.400024" target-x="608.1" target-y="524.5"></path><path d="M 596.20 518.20 L 598.00 517.90 L 601.30 518.20 L 603.60 519.20 L 605.50 520.70 L 608.50 518.90 L 614.50 516.60 L 620.30 516.00 L 626.70 516.60 L 630.40 517.60 L 632.90 518.80 L 637.50 522.10 L 639.50 524.20 L 642.30 528.90 L 643.70 533.00 L 643.90 534.60 L 643.40 535.70 L 632.70 541.30 L 628.80 543.70 L 624.80 546.80 L 621.50 550.10 L 618.90 548.60 L 616.50 547.90 L 615.30 547.90 L 614.10 548.50 L 613.00 549.40 L 612.00 551.30 L 612.10 553.90 L 612.70 555.80 L 613.70 557.50 L 615.00 558.60 L 616.40 559.40 L 617.80 559.70 L 619.10 559.70 L 620.10 559.40 L 619.30 561.90 L 617.10 564.20 L 614.10 564.70 L 612.10 564.60 L 610.10 564.10 L 607.40 563.00 L 602.40 559.50 L 600.20 557.30 L 597.20 552.50 L 595.40 547.10 L 594.90 544.10 L 594.60 536.30 L 591.50 533.80 L 590.40 532.10 L 589.30 528.40 L 589.50 525.10 L 590.40 522.80 L 591.90 520.80 L 593.10 519.70 L 596.20 518.20 Z" fill="url(#paint13_linear_1519_111741)" fill-rule="evenodd" node-id="252" stroke="none" target-height="48.700012" target-width="54.600037" target-x="589.3" target-y="516"></path><path d="M 695.70 756.00 L 703.70 755.50 L 704.30 766.30 L 696.30 766.70 Z" fill="#fee4c3" fill-rule="nonzero" group-id="1" node-id="256" stroke="none" target-height="11.200012" target-width="8.599976" target-x="695.7" target-y="755.5"></path><path d="M 714.90 770.90 L 714.00 772.80 L 713.20 773.40 L 711.60 773.80 L 709.40 774.00 L 704.10 773.60 L 698.30 772.70 L 695.60 772.00 L 692.40 770.20 L 691.10 767.90 L 691.10 766.20 L 691.70 764.80 L 692.70 763.40 L 694.60 761.60 L 697.00 762.90 L 699.00 763.30 L 701.10 763.40 L 703.90 762.70 L 709.10 765.00 L 711.50 766.40 L 714.30 769.00 L 714.90 770.90 Z" fill="#4f538f" fill-rule="nonzero" node-id="259" stroke="none" target-height="12.400024" target-width="23.800049" target-x="691.1" target-y="761.6"></path><path d="M 721.50 741.30 L 729.60 740.80 L 730.10 751.60 L 722.10 752.00 Z" fill="#fee4c3" fill-rule="nonzero" group-id="2" node-id="263" stroke="none" target-height="11.200012" target-width="8.599976" target-x="721.5" target-y="740.8"></path><path d="M 742.10 757.50 L 741.20 759.40 L 738.80 760.50 L 736.60 760.60 L 731.20 760.10 L 725.50 759.20 L 722.80 758.40 L 719.50 756.60 L 718.30 754.30 L 718.40 752.60 L 718.90 751.20 L 719.90 749.80 L 721.90 748.00 L 724.30 749.30 L 726.20 749.80 L 728.40 749.80 L 731.20 749.30 L 733.70 750.30 L 738.70 753.10 L 740.60 754.50 L 741.50 755.70 L 742.10 757.50 Z" fill="#4f538f" fill-rule="nonzero" node-id="266" stroke="none" target-height="12.599976" target-width="23.799988" target-x="718.3" target-y="748"></path><path d="M 627.40 663.40 L 629.20 666.60 L 631.30 669.00 L 634.10 671.40 L 638.50 674.10 L 641.70 675.80 L 651.10 679.20 L 662.80 681.80 L 670.60 682.90 L 687.70 684.00 L 698.60 684.00 L 700.50 693.20 L 705.00 708.90 L 711.40 726.40 L 718.80 742.80 L 730.50 744.30 L 720.00 678.70 L 719.30 675.90 L 718.20 673.30 L 716.60 670.90 L 714.60 668.80 L 712.40 667.10 L 709.90 665.70 L 701.60 663.00 L 678.80 657.80 L 657.20 653.80 L 627.40 663.40 Z" fill="#c7dcff" fill-rule="nonzero" node-id="268" stroke="none" target-height="90.5" target-width="103.099976" target-x="627.4" target-y="653.8"></path><path d="M 618.20 661.90 L 618.90 666.50 L 620.30 670.00 L 623.30 674.90 L 625.80 677.80 L 628.50 680.50 L 632.10 683.20 L 636.80 686.20 L 641.60 688.60 L 647.70 691.00 L 655.30 693.40 L 662.90 695.20 L 672.10 696.70 L 683.10 698.00 L 683.70 707.70 L 685.80 724.20 L 689.60 742.50 L 694.50 759.60 L 705.30 760.10 L 706.40 693.60 L 706.30 690.80 L 705.60 688.00 L 704.50 685.40 L 703.00 682.90 L 701.10 680.80 L 698.80 679.10 L 691.20 674.90 L 669.80 665.60 L 649.20 657.70 L 618.20 661.90 Z" fill="#d1e2ff" fill-rule="nonzero" node-id="270" stroke="none" target-height="102.39996" target-width="88.20001" target-x="618.2" target-y="657.7"></path><path d="M 704.40 641.30 L 703.70 642.40 L 702.80 643.10 L 701.50 643.40 L 699.10 643.30 L 693.30 642.10 L 689.10 640.50 L 687.10 638.60 L 686.80 636.50 L 687.80 634.50 L 690.50 632.60 L 692.70 632.00 L 695.00 631.80 L 697.40 632.00 L 700.00 631.40 L 702.20 631.30 L 704.10 631.60 L 705.90 632.20 L 707.20 633.10 L 708.10 634.20 L 708.70 635.50 L 708.90 636.80 L 708.50 638.10 L 707.80 639.30 L 706.50 640.30 L 704.40 641.30 Z" fill="url(#paint14_linear_1519_111741)" fill-rule="nonzero" node-id="272" stroke="none" target-height="12.100037" target-width="22.100037" target-x="686.8" target-y="631.3"></path><path d="M 588.10 674.10 L 589.40 674.30 L 590.50 673.90 L 591.50 673.00 L 592.80 671.00 L 595.20 665.60 L 596.30 661.30 L 596.00 658.50 L 594.50 657.00 L 592.20 656.70 L 589.10 657.80 L 587.30 659.20 L 585.80 661.00 L 584.60 663.00 L 582.60 664.80 L 581.20 666.50 L 580.30 668.20 L 579.90 670.10 L 580.20 673.10 L 580.90 674.30 L 581.80 675.20 L 583.10 675.70 L 584.50 675.70 L 586.10 675.30 L 588.10 674.10 Z" fill="url(#paint15_linear_1519_111741)" fill-rule="nonzero" node-id="274" stroke="none" target-height="19" target-width="16.399963" target-x="579.9" target-y="656.7"></path><path d="M 637.00 571.60 L 644.80 574.30 L 649.60 577.20 L 651.60 579.20 L 654.50 583.00 L 659.80 591.70 L 665.10 602.80 L 668.70 611.70 L 672.80 618.00 L 677.50 623.50 L 680.60 626.30 L 684.40 627.90 L 689.60 629.60 L 697.20 631.10 L 695.50 642.00 L 683.20 642.10 L 674.60 641.20 L 670.50 640.30 L 667.70 639.30 L 665.30 637.80 L 663.10 636.10 L 661.40 634.40 L 658.30 630.00 L 637.00 571.60 Z" fill="url(#paint16_linear_1519_111741)" fill-rule="evenodd" node-id="276" stroke="none" target-height="70.5" target-width="60.200012" target-x="637" target-y="571.6"></path><path d="M 637.10 570.40 L 635.40 572.70 L 633.80 574.20 L 632.10 575.30 L 628.60 576.20 L 624.30 575.60 L 622.00 574.60 L 618.30 572.00 L 617.80 572.30 L 614.10 576.00 L 611.40 579.90 L 610.10 584.00 L 609.50 593.40 L 609.70 600.70 L 610.80 617.00 L 612.70 634.80 L 617.10 667.30 L 642.00 665.00 L 661.00 662.40 L 670.60 660.20 L 673.40 659.20 L 674.90 658.20 L 675.40 657.50 L 673.00 650.90 L 670.00 640.70 L 658.60 594.20 L 657.80 592.00 L 654.20 585.10 L 651.50 581.20 L 648.50 577.60 L 645.00 574.40 L 642.50 572.60 L 639.90 571.30 L 637.10 570.40 Z" fill="url(#paint17_linear_1519_111741)" fill-rule="nonzero" node-id="278" stroke="none" target-height="96.89996" target-width="65.900024" target-x="609.5" target-y="570.4"></path><path d="M 596.70 590.50 L 597.60 588.20 L 599.30 585.80 L 604.00 581.40 L 609.80 577.50 L 615.50 574.40 L 615.90 575.80 L 616.70 582.20 L 616.80 586.30 L 616.20 594.60 L 615.00 599.40 L 613.10 603.60 L 611.20 611.10 L 607.80 634.90 L 601.60 652.30 L 598.60 659.60 L 595.30 665.60 L 589.00 663.50 L 584.60 662.90 L 586.20 652.90 L 587.80 645.30 L 589.60 638.30 L 591.70 632.00 L 594.70 600.30 L 596.70 590.50 Z" fill="url(#paint18_linear_1519_111741)" fill-rule="nonzero" node-id="280" stroke="none" target-height="91.19995" target-width="32.200012" target-x="584.6" target-y="574.4"></path><path d="M 640.10 571.40 L 638.20 570.60 L 637.20 570.50 L 633.90 573.80 L 632.30 574.70 L 628.80 575.50 L 624.50 575.10 L 622.20 574.30 L 618.40 572.10 L 617.60 572.40 L 616.00 573.90 L 619.40 575.80 L 622.40 577.10 L 625.00 577.80 L 630.10 578.00 L 632.10 577.60 L 634.90 576.40 L 637.10 574.90 L 638.90 573.10 L 640.10 571.40 Z" fill="#5b7efb" fill-rule="nonzero" node-id="282" stroke="none" target-height="7.5" target-width="24.099976" target-x="616" target-y="570.5"></path><path d="M 736.00 316.60 L 693.50 325.40 L 692.00 325.10 L 691.30 323.70 L 691.60 311.20 L 691.30 310.20 L 690.50 309.70 L 681.50 306.70 L 680.80 306.30 L 680.30 305.00 L 680.60 304.00 L 681.40 303.30 L 689.40 300.20 L 691.50 300.20 L 726.70 311.60 L 692.30 293.40 L 691.90 292.70 L 692.10 281.20 L 692.40 280.30 L 693.20 279.70 L 694.20 279.50 L 695.00 279.90 L 736.70 313.50 L 737.30 314.20 L 737.40 315.30 L 736.90 316.20 L 736.00 316.60 Z" fill="url(#paint19_linear_1519_111741)" fill-rule="nonzero" node-id="284" stroke="none" target-height="45.899994" target-width="57.100037" target-x="680.3" target-y="279.5"></path></g></svg>